<mxfile host="Electron" modified="2023-10-22T15:16:20.032Z" agent="Mozilla/5.0 (Windows NT 10.0; Win64; x64) AppleWebKit/537.36 (KHTML, like Gecko) draw.io/22.0.2 Chrome/114.0.5735.289 Electron/25.8.4 Safari/537.36" etag="lwK35_P6IJtQKH8zM_Yw" version="22.0.2" type="device">
  <diagram name="Page-1" id="5ZZPXkkkmvZoAoPfYjoD">
    <mxGraphModel dx="1098" dy="820" grid="1" gridSize="10" guides="1" tooltips="1" connect="1" arrows="1" fold="1" page="1" pageScale="1" pageWidth="827" pageHeight="1169" math="0" shadow="0">
      <root>
        <mxCell id="0" />
        <mxCell id="1" parent="0" />
        <mxCell id="P1hcf5iz_HZhvlH5lLM3-1" value="UC06: Listar Interações Alimentares" style="text;html=1;strokeColor=none;fillColor=none;align=center;verticalAlign=middle;whiteSpace=wrap;rounded=0;fontSize=14;fontStyle=1" parent="1" vertex="1">
          <mxGeometry x="298.5" y="10" width="246" height="30" as="geometry" />
        </mxCell>
        <mxCell id="P1hcf5iz_HZhvlH5lLM3-2" value=":Administrador" style="shape=umlActor;verticalLabelPosition=bottom;verticalAlign=top;html=1;outlineConnect=0;" parent="1" vertex="1">
          <mxGeometry x="50" y="40" width="54" height="110" as="geometry" />
        </mxCell>
        <mxCell id="P1hcf5iz_HZhvlH5lLM3-3" value=":Sistema" style="rounded=0;whiteSpace=wrap;html=1;strokeWidth=1;fontSize=15;fontStyle=1" parent="1" vertex="1">
          <mxGeometry x="435" y="90" width="149" height="70" as="geometry" />
        </mxCell>
        <mxCell id="P1hcf5iz_HZhvlH5lLM3-4" value="" style="endArrow=none;dashed=1;html=1;rounded=0;" parent="1" edge="1">
          <mxGeometry width="50" height="50" relative="1" as="geometry">
            <mxPoint x="75" y="180" as="sourcePoint" />
            <mxPoint x="73" y="550" as="targetPoint" />
          </mxGeometry>
        </mxCell>
        <mxCell id="P1hcf5iz_HZhvlH5lLM3-5" value="" style="endArrow=none;dashed=1;html=1;rounded=0;" parent="1" edge="1">
          <mxGeometry width="50" height="50" relative="1" as="geometry">
            <mxPoint x="504" y="176" as="sourcePoint" />
            <mxPoint x="504" y="550" as="targetPoint" />
          </mxGeometry>
        </mxCell>
        <mxCell id="P1hcf5iz_HZhvlH5lLM3-6" value="" style="endArrow=classic;html=1;rounded=0;" parent="1" edge="1">
          <mxGeometry width="50" height="50" relative="1" as="geometry">
            <mxPoint x="75" y="200" as="sourcePoint" />
            <mxPoint x="505" y="200" as="targetPoint" />
          </mxGeometry>
        </mxCell>
        <mxCell id="P1hcf5iz_HZhvlH5lLM3-7" value="ListarInteracoesAlimentar()" style="text;html=1;strokeColor=none;fillColor=none;align=center;verticalAlign=middle;whiteSpace=wrap;rounded=0;" parent="1" vertex="1">
          <mxGeometry x="219" y="173" width="175" height="30" as="geometry" />
        </mxCell>
        <mxCell id="P1hcf5iz_HZhvlH5lLM3-13" value="" style="endArrow=classic;html=1;rounded=0;dashed=1;" parent="1" edge="1">
          <mxGeometry width="50" height="50" relative="1" as="geometry">
            <mxPoint x="505" y="300" as="sourcePoint" />
            <mxPoint x="77" y="300" as="targetPoint" />
          </mxGeometry>
        </mxCell>
        <mxCell id="P1hcf5iz_HZhvlH5lLM3-14" value="Mostra alfabeticamente as 10 primeiras Interações Alimentar" style="text;html=1;strokeColor=none;fillColor=none;align=center;verticalAlign=middle;whiteSpace=wrap;rounded=0;" parent="1" vertex="1">
          <mxGeometry x="120" y="278" width="340" height="30" as="geometry" />
        </mxCell>
        <mxCell id="P1hcf5iz_HZhvlH5lLM3-18" value="[Não há mais Interações Alimentares]" style="text;html=1;strokeColor=none;fillColor=none;align=center;verticalAlign=middle;whiteSpace=wrap;rounded=0;fontStyle=1;fontSize=12;" parent="1" vertex="1">
          <mxGeometry x="81" y="451" width="220" height="30" as="geometry" />
        </mxCell>
        <mxCell id="P1hcf5iz_HZhvlH5lLM3-29" value="BuscarPrimeirasDezIA(order= alphabet, page= 1)" style="html=1;align=left;spacingLeft=2;endArrow=block;rounded=0;edgeStyle=orthogonalEdgeStyle;curved=0;rounded=0;" parent="1" edge="1">
          <mxGeometry relative="1" as="geometry">
            <mxPoint x="504" y="220" as="sourcePoint" />
            <Array as="points">
              <mxPoint x="534" y="220" />
              <mxPoint x="534" y="260" />
              <mxPoint x="509" y="260" />
            </Array>
            <mxPoint x="504" y="260" as="targetPoint" />
            <mxPoint as="offset" />
          </mxGeometry>
        </mxCell>
        <mxCell id="3bkkWwgcZRyBn6nYLeW7-12" value="&lt;b&gt;&lt;font style=&quot;font-size: 14px;&quot;&gt;alt&lt;/font&gt;&lt;/b&gt;" style="shape=umlFrame;whiteSpace=wrap;html=1;pointerEvents=0;" vertex="1" parent="1">
          <mxGeometry x="30" y="316" width="760" height="200" as="geometry" />
        </mxCell>
        <mxCell id="3bkkWwgcZRyBn6nYLeW7-13" value="" style="endArrow=classic;html=1;rounded=0;" edge="1" parent="1">
          <mxGeometry width="50" height="50" relative="1" as="geometry">
            <mxPoint x="74" y="381" as="sourcePoint" />
            <mxPoint x="502" y="381" as="targetPoint" />
          </mxGeometry>
        </mxCell>
        <mxCell id="3bkkWwgcZRyBn6nYLeW7-14" value="ListarMaisDezInteracoesAlimentar()" style="text;html=1;strokeColor=none;fillColor=none;align=center;verticalAlign=middle;whiteSpace=wrap;rounded=0;" vertex="1" parent="1">
          <mxGeometry x="204" y="358" width="203" height="30" as="geometry" />
        </mxCell>
        <mxCell id="3bkkWwgcZRyBn6nYLeW7-15" value="" style="endArrow=classic;html=1;rounded=0;dashed=1;" edge="1" parent="1">
          <mxGeometry width="50" height="50" relative="1" as="geometry">
            <mxPoint x="502" y="431" as="sourcePoint" />
            <mxPoint x="72" y="431" as="targetPoint" />
          </mxGeometry>
        </mxCell>
        <mxCell id="3bkkWwgcZRyBn6nYLeW7-16" value="BuscarMaisDezIA(order= alphabet, page + 1)" style="html=1;align=left;spacingLeft=2;endArrow=block;rounded=0;edgeStyle=orthogonalEdgeStyle;curved=0;rounded=0;" edge="1" parent="1">
          <mxGeometry relative="1" as="geometry">
            <mxPoint x="501" y="390" as="sourcePoint" />
            <Array as="points">
              <mxPoint x="531" y="390" />
              <mxPoint x="531" y="413" />
            </Array>
            <mxPoint x="502" y="413" as="targetPoint" />
          </mxGeometry>
        </mxCell>
        <mxCell id="3bkkWwgcZRyBn6nYLeW7-17" value="[Enquanto houver Interações Alimentares]" style="text;html=1;strokeColor=none;fillColor=none;align=center;verticalAlign=middle;whiteSpace=wrap;rounded=0;fontStyle=1;fontSize=12;" vertex="1" parent="1">
          <mxGeometry x="107" y="316" width="252" height="30" as="geometry" />
        </mxCell>
        <mxCell id="3bkkWwgcZRyBn6nYLeW7-18" value="&lt;b&gt;&lt;font style=&quot;font-size: 14px;&quot;&gt;loop&lt;/font&gt;&lt;/b&gt;" style="shape=umlFrame;whiteSpace=wrap;html=1;pointerEvents=0;width=45;height=15;" vertex="1" parent="1">
          <mxGeometry x="57" y="351" width="713" height="95" as="geometry" />
        </mxCell>
        <mxCell id="3bkkWwgcZRyBn6nYLeW7-19" value="" style="endArrow=none;dashed=1;html=1;rounded=0;exitX=0;exitY=0.69;exitDx=0;exitDy=0;exitPerimeter=0;entryX=1.002;entryY=0.698;entryDx=0;entryDy=0;entryPerimeter=0;" edge="1" parent="1" target="3bkkWwgcZRyBn6nYLeW7-12" source="3bkkWwgcZRyBn6nYLeW7-12">
          <mxGeometry width="50" height="50" relative="1" as="geometry">
            <mxPoint x="42.21500000000003" y="454.25" as="sourcePoint" />
            <mxPoint x="827.2150000000001" y="454.75" as="targetPoint" />
          </mxGeometry>
        </mxCell>
        <mxCell id="3bkkWwgcZRyBn6nYLeW7-20" value="Informa não há mais Interações Alimentares" style="text;html=1;strokeColor=none;fillColor=none;align=center;verticalAlign=middle;whiteSpace=wrap;rounded=0;" vertex="1" parent="1">
          <mxGeometry x="162" y="481" width="260" height="20" as="geometry" />
        </mxCell>
        <mxCell id="3bkkWwgcZRyBn6nYLeW7-21" value="" style="endArrow=classic;html=1;rounded=0;dashed=1;" edge="1" parent="1">
          <mxGeometry width="50" height="50" relative="1" as="geometry">
            <mxPoint x="502" y="501" as="sourcePoint" />
            <mxPoint x="72" y="501" as="targetPoint" />
          </mxGeometry>
        </mxCell>
        <mxCell id="3bkkWwgcZRyBn6nYLeW7-22" value="Retorna as próximas 10 Interações Alimentares" style="text;html=1;strokeColor=none;fillColor=none;align=center;verticalAlign=middle;whiteSpace=wrap;rounded=0;" vertex="1" parent="1">
          <mxGeometry x="108" y="406" width="360" height="30" as="geometry" />
        </mxCell>
      </root>
    </mxGraphModel>
  </diagram>
</mxfile>
